<svg fill="#000000" height="50px" width="50px" version="1.1" id="Capa_1" xmlns="http://www.w3.org/2000/svg" xmlns:xlink="http://www.w3.org/1999/xlink" viewBox="0 0 30.625 30.625" xml:space="preserve"><g><g><path d="M24.123 13.894a0.762 0.762 0 0 0 -0.762 0.762v7.052a0.761 0.761 0 1 0 1.525 0v-7.05a0.762 0.762 0 0 0 -0.762 -0.762z"/><path d="M6.502 13.894a0.762 0.762 0 0 0 -0.762 0.762v7.052a0.762 0.762 0 0 0 1.525 0v-7.05a0.762 0.762 0 0 0 -0.762 -0.762z"/></g><g><g><path d="M12.692 14.189H11.234a33.333 33.333 0 0 1 0.248 -0.256c0.672 -0.686 1.431 -1.464 1.431 -2.362 0 -0.919 -0.748 -1.667 -1.667 -1.667s-1.667 0.748 -1.667 1.667c0 0.322 0.263 0.586 0.584 0.586a0.588 0.588 0 0 0 0.586 -0.586 0.497 0.497 0 0 1 0.994 0c0 0.422 -0.634 1.07 -1.098 1.544 -0.595 0.608 -1.064 1.089 -1.064 1.659 0 0.322 0.263 0.586 0.584 0.586h2.525a0.584 0.584 0 0 0 0 -1.172z"/><path d="M16.167 12.87v-0.237a0.563 0.563 0 0 0 -1.125 0v0.236h-0.33l0.686 -2.247a0.563 0.563 0 0 0 -0.373 -0.702 0.575 0.575 0 0 0 -0.164 -0.025 0.563 0.563 0 0 0 -0.537 0.398l-0.908 2.973a0.566 0.566 0 0 0 0.086 0.498 0.564 0.564 0 0 0 0.452 0.228h1.089v0.805a0.563 0.563 0 1 0 1.125 0V13.992a0.563 0.563 0 0 0 0 -1.122z"/><path d="M19.286 11.934c-0.122 0 -0.242 0.013 -0.358 0.036V10.484a0.589 0.589 0 0 0 -1.178 0v4.277a0.589 0.589 0 0 0 0.589 0.591 0.589 0.589 0 0 0 0.589 -0.591v-1.523a0.575 0.575 0 0 1 0.358 -0.125c0.319 0 0.58 0.259 0.58 0.578v1.07a0.589 0.589 0 1 0 1.18 0v-1.07c0 -0.969 -0.789 -1.758 -1.758 -1.758z"/></g><path d="M28.923 14.284A13.519 13.519 0 0 0 24.938 4.836c-2.572 -2.572 -5.991 -3.988 -9.627 -3.988S8.258 2.264 5.686 4.836a13.528 13.528 0 0 0 -3.986 9.448A3.866 3.866 0 0 0 0 17.486v1.394a3.87 3.87 0 0 0 3.866 3.866 1.038 1.038 0 0 0 1.038 -1.038v-7.05a1.038 1.038 0 0 0 -1.038 -1.038c-0.103 0 -0.205 0.005 -0.306 0.013a11.758 11.758 0 0 1 3.703 -7.767 1.93 1.93 0 0 0 0.253 0.608 1.922 1.922 0 0 0 2.653 0.594A9.573 9.573 0 0 1 15.313 5.584c1.837 0 3.616 0.513 5.144 1.483a1.922 1.922 0 0 0 2.653 -0.594 1.928 1.928 0 0 0 0.253 -0.608 11.75 11.75 0 0 1 3.703 7.767 3.856 3.856 0 0 0 -0.306 -0.013 1.038 1.038 0 0 0 -1.038 1.038v7.052c0 0.427 0.258 0.794 0.627 0.953a8.009 8.009 0 0 1 -0.47 1.123c-0.891 1.719 -2.334 2.763 -4.458 3.198a1.723 1.723 0 0 0 -1.503 -0.878H17.023c-0.953 0 -1.727 0.773 -1.727 1.727v0.219c0 0.953 0.773 1.727 1.727 1.727h2.894c0.672 0 1.253 -0.384 1.539 -0.944a9.658 9.658 0 0 0 2.923 -0.984 7.527 7.527 0 0 0 3.123 -3.22c0.358 -0.691 0.627 -1.438 0.828 -2.216a3.878 3.878 0 0 0 2.294 -3.534v-1.394a3.863 3.863 0 0 0 -1.702 -3.202z"/></g></g></svg>